{
  "asset": {
    "version": "2.0",
    "generator": "THREE.GLTFExporter r164"
  },
  "scenes": [
    {
      "name": "Scene",
      "nodes": [
        0,
        11
      ]
    }
  ],
  "scene": 0,
  "nodes": [
    {
      "matrix": [
        4.540350474358177,
        0,
        0,
        0,
        0,
        0.7433119026159173,
        0,
        0,
        0,
        0,
        2.3195701758997544,
        0,
        0,
        1.038264490324174,
        0,
        1
      ],
      "name": "Box",
      "mesh": 0
    },
    {
      "matrix": [
        -1,
        0,
        -1.2246467991473532e-16,
        0,
        0,
        0.8145951431324713,
        0,
        0,
        1.2246467991473532e-16,
        0,
        -1,
        0,
        -0.12436427652645565,
        2.709783547722,
        -1.2418272064168274,
        1
      ],
      "name": "Plane",
      "mesh": 1
    },
    {
      "matrix": [
        0.6,
        0,
        0,
        0,
        0,
        1.3322676295501878e-16,
        0.6,
        0,
        0,
        -0.6,
        1.3322676295501878e-16,
        0,
        -1.5746694054039971,
        0.8228515334700872,
        -1.3941257423253293,
        1
      ],
      "name": "Cylinder",
      "mesh": 2
    },
    {
      "matrix": [
        0.6,
        0,
        0,
        0,
        0,
        1.3322676295501878e-16,
        0.6,
        0,
        0,
        -0.6,
        1.3322676295501878e-16,
        0,
        1.5319883874647902,
        0.8228515334700872,
        -1.3941257423253293,
        1
      ],
      "name": "Cylinder",
      "mesh": 2
    },
    {
      "matrix": [
        0.6,
        0,
        0,
        0,
        0,
        1.3322676295501878e-16,
        0.6,
        0,
        0,
        -0.6,
        1.3322676295501878e-16,
        0,
        -1.5746694054039971,
        0.8228515334700872,
        1.4,
        1
      ],
      "name": "Cylinder",
      "mesh": 2
    },
    {
      "matrix": [
        0.6,
        0,
        0,
        0,
        0,
        1.3322676295501878e-16,
        0.6,
        0,
        0,
        -0.6,
        1.3322676295501878e-16,
        0,
        1.5319883874647902,
        0.8228515334700872,
        1.4,
        1
      ],
      "name": "Cylinder",
      "mesh": 2
    },
    {
      "matrix": [
        4.5783592064397665,
        0,
        0,
        0,
        0,
        1,
        0,
        0,
        0,
        0,
        2.404809659182419,
        0,
        0.004964146330160735,
        1.7063003901629838,
        -0.0068145043998351085,
        1
      ],
      "name": "Box",
      "mesh": 3
    },
    {
      "matrix": [
        1.7928113986020473,
        0,
        0,
        0,
        0,
        1,
        0,
        0,
        0,
        0,
        2.404809659182419,
        0,
        0.004964146330160735,
        2.7023742834623423,
        -0.0068145043998351085,
        1
      ],
      "name": "Box",
      "mesh": 3
    },
    {
      "matrix": [
        1,
        0,
        0,
        0,
        0,
        0.8145951431324713,
        0,
        0,
        0,
        0,
        1,
        0,
        -0.12436427652645565,
        2.714009165066728,
        1.2012379439094873,
        1
      ],
      "name": "Plane",
      "mesh": 1
    },
    {
      "matrix": [
        4.2986910963883067e-16,
        0,
        -1.9359583619875247,
        0,
        0,
        0.8145951431324713,
        0,
        0,
        1,
        0,
        2.220446049250313e-16,
        0,
        0.9386120783509979,
        2.8036060024524443,
        -0.0361529987435647,
        1
      ],
      "name": "Plane",
      "mesh": 1
    },
    {
      "matrix": [
        -4.472727637215033e-16,
        4.933703826060227e-16,
        -2.014337452029134,
        0,
        2.465190328815662e-32,
        1,
        2.449293598294706e-16,
        0,
        1,
        2.465190328815662e-32,
        -2.220446049250313e-16,
        0,
        2.30973304701984,
        1.762636754480545,
        0,
        1
      ],
      "name": "Plane",
      "mesh": 4
    },
    {
      "name": "Group",
      "children": [
        1,
        2,
        3,
        4,
        5,
        6,
        7,
        8,
        9,
        10
      ]
    }
  ],
  "bufferViews": [
    {
      "buffer": 0,
      "byteOffset": 0,
      "byteLength": 288,
      "target": 34962,
      "byteStride": 12
    },
    {
      "buffer": 0,
      "byteOffset": 288,
      "byteLength": 288,
      "target": 34962,
      "byteStride": 12
    },
    {
      "buffer": 0,
      "byteOffset": 576,
      "byteLength": 192,
      "target": 34962,
      "byteStride": 8
    },
    {
      "buffer": 0,
      "byteOffset": 768,
      "byteLength": 72,
      "target": 34963
    },
    {
      "buffer": 0,
      "byteOffset": 840,
      "byteLength": 48,
      "target": 34962,
      "byteStride": 12
    },
    {
      "buffer": 0,
      "byteOffset": 888,
      "byteLength": 48,
      "target": 34962,
      "byteStride": 12
    },
    {
      "buffer": 0,
      "byteOffset": 936,
      "byteLength": 32,
      "target": 34962,
      "byteStride": 8
    },
    {
      "buffer": 0,
      "byteOffset": 968,
      "byteLength": 12,
      "target": 34963
    },
    {
      "buffer": 0,
      "byteOffset": 980,
      "byteLength": 2352,
      "target": 34962,
      "byteStride": 12
    },
    {
      "buffer": 0,
      "byteOffset": 3332,
      "byteLength": 2352,
      "target": 34962,
      "byteStride": 12
    },
    {
      "buffer": 0,
      "byteOffset": 5684,
      "byteLength": 1568,
      "target": 34962,
      "byteStride": 8
    },
    {
      "buffer": 0,
      "byteOffset": 7252,
      "byteLength": 768,
      "target": 34963
    },
    {
      "buffer": 0,
      "byteOffset": 8020,
      "byteLength": 288,
      "target": 34962,
      "byteStride": 12
    },
    {
      "buffer": 0,
      "byteOffset": 8308,
      "byteLength": 288,
      "target": 34962,
      "byteStride": 12
    },
    {
      "buffer": 0,
      "byteOffset": 8596,
      "byteLength": 192,
      "target": 34962,
      "byteStride": 8
    },
    {
      "buffer": 0,
      "byteOffset": 8788,
      "byteLength": 72,
      "target": 34963
    },
    {
      "buffer": 0,
      "byteOffset": 8860,
      "byteLength": 48,
      "target": 34962,
      "byteStride": 12
    },
    {
      "buffer": 0,
      "byteOffset": 8908,
      "byteLength": 48,
      "target": 34962,
      "byteStride": 12
    },
    {
      "buffer": 0,
      "byteOffset": 8956,
      "byteLength": 32,
      "target": 34962,
      "byteStride": 8
    },
    {
      "buffer": 0,
      "byteOffset": 8988,
      "byteLength": 12,
      "target": 34963
    }
  ],
  "buffers": [
    {
      "byteLength": 9000,
      "uri": "data:application/octet-stream;base64,"
    }
  ],
  "accessors": [
    {
      "bufferView": 0,
      "componentType": 5126,
      "count": 24,
      "max": [
        0.5,
        0.5,
        0.5
      ],
      "min": [
        -0.5,
        -0.5,
        -0.5
      ],
      "type": "VEC3"
    },
    {
      "bufferView": 1,
      "componentType": 5126,
      "count": 24,
      "max": [
        1,
        1,
        1
      ],
      "min": [
        -1,
        -1,
        -1
      ],
      "type": "VEC3"
    },
    {
      "bufferView": 2,
      "componentType": 5126,
      "count": 24,
      "max": [
        1,
        1
      ],
      "min": [
        0,
        0
      ],
      "type": "VEC2"
    },
    {
      "bufferView": 3,
      "componentType": 5123,
      "count": 36,
      "max": [
        23
      ],
      "min": [
        0
      ],
      "type": "SCALAR"
    },
    {
      "bufferView": 4,
      "componentType": 5126,
      "count": 4,
      "max": [
        0.5,
        0.5,
        0
      ],
      "min": [
        -0.5,
        -0.5,
        0
      ],
      "type": "VEC3"
    },
    {
      "bufferView": 5,
      "componentType": 5126,
      "count": 4,
      "max": [
        0,
        0,
        1
      ],
      "min": [
        0,
        0,
        1
      ],
      "type": "VEC3"
    },
    {
      "bufferView": 6,
      "componentType": 5126,
      "count": 4,
      "max": [
        1,
        1
      ],
      "min": [
        0,
        0
      ],
      "type": "VEC2"
    },
    {
      "bufferView": 7,
      "componentType": 5123,
      "count": 6,
      "max": [
        3
      ],
      "min": [
        0
      ],
      "type": "SCALAR"
    },
    {
      "bufferView": 8,
      "componentType": 5126,
      "count": 196,
      "max": [
        1,
        0.5,
        1
      ],
      "min": [
        -1,
        -0.5,
        -1
      ],
      "type": "VEC3"
    },
    {
      "bufferView": 9,
      "componentType": 5126,
      "count": 196,
      "max": [
        1,
        1,
        1
      ],
      "min": [
        -1,
        -1,
        -1
      ],
      "type": "VEC3"
    },
    {
      "bufferView": 10,
      "componentType": 5126,
      "count": 196,
      "max": [
        1,
        1
      ],
      "min": [
        0,
        0
      ],
      "type": "VEC2"
    },
    {
      "bufferView": 11,
      "componentType": 5123,
      "count": 384,
      "max": [
        195
      ],
      "min": [
        0
      ],
      "type": "SCALAR"
    },
    {
      "bufferView": 12,
      "componentType": 5126,
      "count": 24,
      "max": [
        0.5,
        0.5,
        0.5
      ],
      "min": [
        -0.5,
        -0.5,
        -0.5
      ],
      "type": "VEC3"
    },
    {
      "bufferView": 13,
      "componentType": 5126,
      "count": 24,
      "max": [
        1,
        1,
        1
      ],
      "min": [
        -1,
        -1,
        -1
      ],
      "type": "VEC3"
    },
    {
      "bufferView": 14,
      "componentType": 5126,
      "count": 24,
      "max": [
        1,
        1
      ],
      "min": [
        0,
        0
      ],
      "type": "VEC2"
    },
    {
      "bufferView": 15,
      "componentType": 5123,
      "count": 36,
      "max": [
        23
      ],
      "min": [
        0
      ],
      "type": "SCALAR"
    },
    {
      "bufferView": 16,
      "componentType": 5126,
      "count": 4,
      "max": [
        0.5,
        0.5,
        0
      ],
      "min": [
        -0.5,
        -0.5,
        0
      ],
      "type": "VEC3"
    },
    {
      "bufferView": 17,
      "componentType": 5126,
      "count": 4,
      "max": [
        0,
        0,
        1
      ],
      "min": [
        0,
        0,
        1
      ],
      "type": "VEC3"
    },
    {
      "bufferView": 18,
      "componentType": 5126,
      "count": 4,
      "max": [
        1,
        1
      ],
      "min": [
        0,
        0
      ],
      "type": "VEC2"
    },
    {
      "bufferView": 19,
      "componentType": 5123,
      "count": 6,
      "max": [
        3
      ],
      "min": [
        0
      ],
      "type": "SCALAR"
    }
  ],
  "materials": [
    {
      "pbrMetallicRoughness": {
        "metallicFactor": 0,
        "roughnessFactor": 1
      },
      "emissiveFactor": [
        0.22322795730611386,
        0.22322795730611386,
        0.22322795730611386
      ]
    },
    {
      "pbrMetallicRoughness": {
        "metallicFactor": 0,
        "roughnessFactor": 0
      },
      "emissiveFactor": [
        1,
        1,
        1
      ]
    },
    {
      "pbrMetallicRoughness": {
        "metallicFactor": 0,
        "roughnessFactor": 1
      }
    },
    {
      "pbrMetallicRoughness": {
        "metallicFactor": 1,
        "roughnessFactor": 0
      },
      "emissiveFactor": [
        0,
        0.005605391621829107,
        1
      ]
    },
    {
      "pbrMetallicRoughness": {
        "metallicFactor": 0,
        "roughnessFactor": 0
      },
      "emissiveFactor": [
        1,
        0.822785754392438,
        0
      ]
    }
  ],
  "meshes": [
    {
      "primitives": [
        {
          "mode": 4,
          "attributes": {
            "POSITION": 0,
            "NORMAL": 1,
            "TEXCOORD_0": 2
          },
          "indices": 3,
          "material": 0
        }
      ]
    },
    {
      "primitives": [
        {
          "mode": 4,
          "attributes": {
            "POSITION": 4,
            "NORMAL": 5,
            "TEXCOORD_0": 6
          },
          "indices": 7,
          "material": 1
        }
      ]
    },
    {
      "primitives": [
        {
          "mode": 4,
          "attributes": {
            "POSITION": 8,
            "NORMAL": 9,
            "TEXCOORD_0": 10
          },
          "indices": 11,
          "material": 2
        }
      ]
    },
    {
      "primitives": [
        {
          "mode": 4,
          "attributes": {
            "POSITION": 12,
            "NORMAL": 13,
            "TEXCOORD_0": 14
          },
          "indices": 15,
          "material": 3
        }
      ]
    },
    {
      "primitives": [
        {
          "mode": 4,
          "attributes": {
            "POSITION": 16,
            "NORMAL": 17,
            "TEXCOORD_0": 18
          },
          "indices": 19,
          "material": 4
        }
      ]
    }
  ]
}